<svg width="320" height="320" viewBox="0 0 320 320" fill="none" xmlns="http://www.w3.org/2000/svg">
<path d="M131.749 127.657C94.562 122.268 78.1954 111.969 54.7884 84.2248C-36.1675 146.271 -8.18189 295.181 96.7671 320C138.744 301.386 166.73 189.703 131.749 127.657Z" fill="url(#paint0_linear_15_336)"/>
<path d="M222.701 320C165.261 266.885 152.737 208.317 187.719 127.657C221.059 123.734 239.442 114.243 271.677 84.2248C348.638 164.885 334.645 288.977 222.701 320Z" fill="url(#paint1_linear_15_336)"/>
<path d="M75.7758 71.8156C138.744 127.657 201.712 115.248 243.691 71.8156C229.826 60.5934 222.188 56.7768 208.709 53.2018L236.694 15.9742C242.227 -2.37907 237.015 -2.45867 222.701 3.56494L187.719 46.9972C167.53 43.6446 156.951 44.1015 138.744 46.9972L96.7652 3.56476C80.2001 0.187638 77.7185 4.61614 82.7722 22.1786L110.758 53.2018C93.1429 58.4904 86.2362 62.9423 75.7758 71.8156Z" fill="url(#paint2_linear_15_336)"/>
<defs>
<linearGradient id="paint0_linear_15_336" x1="160" y1="0" x2="160" y2="320" gradientUnits="userSpaceOnUse">
<stop offset="0.4375" stop-color="white"/>
<stop offset="1" stop-color="white" stop-opacity="0"/>
</linearGradient>
<linearGradient id="paint1_linear_15_336" x1="160" y1="0" x2="160" y2="320" gradientUnits="userSpaceOnUse">
<stop offset="0.4375" stop-color="white"/>
<stop offset="1" stop-color="white" stop-opacity="0"/>
</linearGradient>
<linearGradient id="paint2_linear_15_336" x1="160" y1="0" x2="160" y2="320" gradientUnits="userSpaceOnUse">
<stop offset="0.4375" stop-color="white"/>
<stop offset="1" stop-color="white" stop-opacity="0"/>
</linearGradient>
</defs>
</svg>
